<?xml version="1.0" standalone="no"?>
<!DOCTYPE svg PUBLIC "-//W3C//DTD SVG 20010904//EN"
 "http://www.w3.org/TR/2001/REC-SVG-20010904/DTD/svg10.dtd">
<svg version="1.0" xmlns="http://www.w3.org/2000/svg"
 width="1024.000000pt" height="1024.000000pt" viewBox="0 0 1024.000000 1024.000000"
 preserveAspectRatio="xMidYMid meet">
<metadata>
Created by potrace 1.16, written by Peter Selinger 2001-2019
</metadata>
<g transform="translate(0.000000,1024.000000) scale(0.100000,-0.100000)"
fill="#000000" stroke="none">
<path d="M0 5120 l0 -5120 5120 0 5120 0 0 5120 0 5120 -5120 0 -5120 0 0
-5120z m5520 4045 c733 -91 1409 -364 1980 -800 182 -138 410 -345 410 -372 0
-39 -35 -19 -144 80 -349 319 -735 568 -1147 742 -392 165 -796 266 -1230 306
-176 16 -686 7 -849 -15 -461 -63 -905 -197 -1280 -387 -222 -113 -291 -153
-467 -272 -350 -236 -699 -567 -943 -892 -137 -184 -166 -226 -250 -366 -295
-492 -483 -1052 -552 -1644 -17 -146 -17 -704 0 -850 162 -1399 991 -2577
2242 -3187 851 -415 1842 -515 2755 -277 213 55 225 57 225 31 0 -23 -33 -37
-160 -71 -393 -105 -771 -149 -1180 -138 -255 7 -363 17 -570 53 -791 135
-1491 482 -2091 1037 -69 63 -173 169 -230 234 -57 65 -114 129 -127 143 -91
98 -298 395 -402 575 -28 50 -87 163 -131 252 -204 416 -323 829 -386 1333
-24 194 -24 671 0 875 80 676 290 1256 653 1805 91 138 212 302 270 365 11 12
53 59 94 105 170 194 455 454 624 570 12 8 64 45 116 81 298 210 724 416 1085
527 275 85 601 149 865 171 164 14 668 5 820 -14z m2552 -1834 c13 -13 41 -35
63 -49 194 -120 285 -191 349 -276 99 -130 168 -290 208 -485 19 -94 22 -140
22 -396 1 -231 5 -315 21 -415 23 -155 27 -605 7 -800 -34 -322 -117 -701
-226 -1035 -30 -93 -54 -170 -53 -171 4 -4 167 205 197 253 18 28 45 98 61
154 18 65 40 119 59 146 17 23 43 68 58 100 24 53 27 68 26 173 0 63 -9 183
-19 265 -11 83 -19 211 -19 285 0 116 5 153 31 265 41 174 118 376 214 565 63
123 82 173 97 245 10 50 23 99 29 110 11 19 12 19 17 -5 10 -42 35 -303 56
-580 11 -146 25 -296 30 -335 21 -139 30 -353 20 -468 -17 -210 -65 -339 -203
-548 -101 -154 -190 -255 -289 -330 -82 -62 -237 -211 -313 -299 -61 -72 -98
-136 -160 -279 -91 -211 -152 -323 -351 -639 -168 -266 -267 -388 -567 -700
-54 -57 -97 -106 -94 -108 7 -7 345 134 449 188 131 67 162 103 428 503 161
242 283 412 394 550 53 66 118 147 144 180 276 348 464 492 830 636 69 27 127
49 129 49 2 0 -45 -46 -103 -103 -238 -227 -392 -459 -550 -822 -76 -176 -177
-371 -248 -478 -83 -125 -406 -475 -426 -462 -4 3 -11 -2 -14 -11 -4 -9 -9
-14 -13 -10 -3 3 -12 -3 -19 -13 -24 -34 -168 -94 -252 -106 -15 -2 -54 -8
-87 -14 -84 -15 -116 -19 -230 -31 -215 -23 -344 -55 -460 -113 -77 -38 -120
-71 -225 -173 -47 -46 -112 -104 -145 -130 -33 -27 -85 -68 -115 -92 -69 -56
-97 -69 -112 -54 -8 8 -4 20 17 44 58 69 152 230 238 405 87 179 90 186 114
325 19 109 25 183 26 313 l2 170 -42 94 c-54 117 -54 130 -2 27 22 -43 41 -76
43 -75 5 8 -10 399 -16 405 -3 3 -32 12 -65 20 -78 21 -119 50 -144 104 -12
25 -28 53 -37 63 -14 16 -13 17 7 17 12 0 19 -4 16 -10 -8 -13 28 -80 62 -112
26 -25 71 -48 94 -48 9 0 -74 114 -89 123 -4 2 -1 2 6 1 6 -2 12 2 12 9 1 7
12 -8 24 -33 13 -25 35 -57 49 -73 26 -27 63 -38 55 -14 -3 6 -13 36 -23 66
-12 37 -32 68 -64 99 -25 24 -37 40 -25 34 21 -11 80 -73 101 -108 11 -18 12
-18 12 -1 1 21 37 107 65 155 20 35 37 29 35 -13 -1 -17 -2 -17 -6 -2 -8 29
-17 19 -47 -51 -33 -76 -48 -188 -25 -180 26 9 69 93 76 148 5 40 8 49 14 33
11 -30 -5 -88 -41 -145 -17 -28 -29 -52 -27 -54 11 -11 73 47 93 86 13 25 24
39 24 32 0 -23 -40 -91 -63 -106 -12 -8 -35 -18 -50 -22 -26 -6 -28 -10 -23
-38 4 -17 9 -93 13 -168 6 -135 14 -163 28 -92 3 20 8 34 11 31 3 -2 -2 -33
-10 -68 -10 -44 -14 -120 -14 -239 0 -96 -5 -215 -11 -264 -7 -49 -10 -90 -8
-92 2 -3 28 60 57 138 117 320 183 544 221 757 22 122 19 177 -17 354 -8 38
-14 80 -13 95 0 15 12 -31 25 -103 13 -71 26 -146 30 -165 l7 -35 13 50 c20
76 52 293 65 449 12 128 11 140 -5 151 -12 9 -13 14 -5 17 27 9 -120 123 -163
127 -18 2 -6 -31 22 -62 19 -22 46 -39 75 -47 25 -7 44 -15 41 -17 -8 -9 -84
18 -110 38 -24 19 -72 96 -64 104 2 2 21 -3 43 -10 21 -8 41 -13 43 -11 2 2
-6 19 -17 37 -22 36 -26 65 -12 88 7 11 18 7 53 -17 25 -17 59 -47 76 -67 31
-35 32 -35 32 -11 0 28 41 136 52 136 12 0 31 -73 37 -139 l6 -64 35 51 c31
46 57 69 66 59 2 -1 -9 -34 -24 -72 -32 -82 -80 -135 -121 -135 l-28 0 -7
-107 c-11 -169 -35 -367 -62 -503 -13 -69 -24 -129 -24 -134 0 -18 72 109 91
159 56 153 98 258 98 245 0 -8 -15 -60 -34 -114 -19 -55 -35 -103 -35 -108 0
-5 37 34 83 87 79 93 82 99 88 158 6 55 10 64 45 94 71 62 69 61 77 34 3 -13
-7 -30 -30 -53 -34 -32 -68 -86 -61 -94 2 -2 21 10 41 27 41 34 69 80 65 106
-2 9 3 18 11 21 10 3 11 -2 6 -19 -15 -51 -57 -109 -101 -141 -79 -57 -274
-315 -333 -441 -33 -70 -69 -187 -101 -327 -43 -185 -181 -570 -285 -795 -74
-160 -74 -159 8 -74 41 41 102 111 136 155 34 43 68 86 74 94 33 41 114 184
197 348 90 175 93 184 82 215 -18 50 -15 90 13 169 14 39 25 82 25 95 0 13 4
23 8 23 12 0 32 -47 32 -75 0 -35 15 -31 40 10 36 59 51 45 56 -54 2 -36 4
-67 4 -68 0 -2 23 6 50 16 28 11 50 15 50 9 0 -17 -63 -88 -98 -110 -18 -11
-59 -26 -90 -32 l-57 -11 -110 -220 c-108 -215 -158 -301 -218 -378 -16 -21
-27 -40 -24 -44 14 -14 243 198 331 307 l28 35 -20 -34 c-38 -64 -204 -231
-305 -307 -146 -108 -302 -272 -366 -384 -29 -49 -56 -92 -62 -95 -11 -7 -12
-25 -1 -25 4 0 62 44 128 97 237 193 625 605 835 888 142 189 159 225 247 496
70 216 98 374 89 509 -9 146 -48 221 -201 390 -109 120 -148 186 -176 296 -39
151 -17 508 50 834 21 102 41 218 45 259 8 83 14 80 41 -29 11 -42 53 -145 97
-235 44 -88 87 -182 98 -210 22 -61 38 -166 39 -260 0 -38 7 -117 15 -175 10
-72 12 -150 9 -250 -4 -95 -1 -207 10 -325 34 -396 31 -527 -19 -700 -13 -44
-22 -81 -20 -83 5 -6 151 297 205 425 152 366 330 1046 347 1329 9 149 1 177
-70 252 -34 36 -102 95 -152 132 -106 80 -269 245 -318 321 -110 172 -126 242
-137 599 -7 247 -11 285 -34 375 -14 55 -26 104 -26 109 0 17 69 -55 130 -134
173 -227 266 -422 314 -662 14 -68 39 -163 56 -213 35 -100 222 -489 241 -500
20 -13 5 445 -20 590 -28 165 -73 312 -132 428 -53 105 -83 204 -94 302 -12
119 -46 286 -70 352 -42 111 -139 263 -226 352 -47 49 -91 106 -109 141 -32
64 -39 87 -15 55 8 -11 25 -31 37 -44z m-5016 -1834 c80 -41 100 -120 55 -208
-61 -117 -248 -301 -386 -378 -49 -28 -25 -6 63 57 84 61 215 194 268 273 72
109 68 198 -10 231 -50 21 -207 15 -305 -11 -277 -73 -577 -237 -781 -426
-198 -183 -279 -341 -221 -433 65 -102 188 -105 571 -10 156 38 230 51 311 55
123 7 167 -4 192 -46 l17 -29 108 47 c59 26 138 59 175 72 62 22 71 28 94 72
15 26 30 47 35 47 6 0 8 -3 6 -7 -25 -50 -58 -126 -58 -136 0 -7 16 5 36 26
48 50 80 71 100 63 16 -6 15 -19 -2 -78 -14 -47 197 8 243 63 29 34 73 40 73
11 0 -23 -25 -47 -63 -61 -34 -13 -35 -39 0 -52 57 -21 251 49 278 100 7 15
36 83 63 153 82 204 164 359 198 372 20 8 34 -1 34 -19 0 -33 -216 -440 -259
-490 -20 -23 -94 -205 -86 -213 3 -3 6 -3 8 -1 14 20 117 140 139 162 38 37
48 34 48 -13 0 -25 5 -40 13 -40 22 0 169 69 192 90 28 26 41 25 61 -5 15 -23
15 -27 -5 -67 -64 -132 -11 -127 167 18 17 15 32 22 32 17 0 -12 -105 -99
-157 -129 -71 -42 -100 -16 -72 65 6 18 9 34 7 36 -2 3 -20 -6 -38 -20 -45
-33 -64 -33 -56 1 6 23 4 26 -11 20 -94 -37 -136 -46 -150 -35 -9 8 -12 21 -8
36 9 37 -6 26 -65 -45 -89 -107 -120 -136 -132 -124 -7 7 -1 33 21 87 18 42
30 79 27 83 -3 3 -30 -6 -59 -21 -29 -14 -83 -31 -120 -38 -61 -11 -68 -11
-87 6 -11 10 -20 26 -20 37 0 24 -10 23 -103 -9 -61 -20 -84 -24 -105 -17 -25
9 -27 14 -24 57 2 26 0 47 -3 47 -12 0 -70 -59 -109 -110 -44 -60 -57 -53 -33
19 13 37 13 41 -2 41 -21 0 -185 -66 -268 -108 -49 -25 -63 -38 -76 -69 -39
-96 -226 -253 -367 -309 -114 -44 -156 -12 -89 69 30 37 245 187 267 187 7 0
12 3 12 8 0 4 36 25 80 47 92 45 101 67 40 98 -29 15 -50 18 -125 13 -103 -6
-174 -20 -400 -77 -127 -33 -184 -42 -275 -45 -111 -5 -116 -4 -164 23 -27 15
-58 40 -69 55 -25 34 -34 122 -17 173 45 137 277 364 526 514 81 49 266 140
344 170 73 28 193 62 255 72 70 11 187 4 221 -14z m2618 11 c14 -6 35 -27 47
-47 18 -30 20 -45 14 -94 -12 -108 -61 -254 -160 -472 -64 -142 -53 -137 45
22 156 251 319 451 420 512 93 56 164 -12 120 -114 -7 -16 -14 -36 -16 -44 -4
-21 -81 -167 -122 -231 -156 -246 -412 -489 -581 -551 -50 -18 -59 -25 -71
-57 -7 -20 -25 -62 -40 -93 -15 -31 -33 -72 -39 -92 -13 -37 -41 -70 -41 -47
0 17 70 191 86 215 22 31 17 42 -23 50 -47 8 -93 54 -93 92 0 26 2 26 19 -13
20 -43 39 -54 99 -54 36 0 32 -7 120 195 217 500 241 565 249 687 6 73 5 77
-21 103 -26 26 -32 27 -91 23 -126 -11 -342 -146 -524 -328 -141 -140 -196
-256 -196 -410 1 -70 5 -95 26 -140 36 -76 98 -135 170 -161 66 -24 73 -36 11
-20 -59 16 -131 69 -169 124 -85 125 -83 274 5 442 89 168 432 448 622 506 38
11 106 10 134 -3z m1394 -772 c8 -19 6 -36 -14 -85 -25 -62 -25 -81 2 -81 21
0 100 54 151 103 24 23 46 38 50 34 13 -13 -172 -157 -202 -157 -8 0 -20 7
-29 15 -13 14 -13 20 1 61 8 25 13 47 11 49 -2 3 -20 -6 -38 -20 -45 -33 -64
-33 -56 1 9 35 1 31 -103 -54 l-89 -74 -7 -61 c-9 -91 -33 -187 -58 -232 -24
-43 -78 -85 -109 -85 -27 0 -78 54 -78 82 0 40 56 122 144 214 l86 89 0 64 c0
69 2 69 -54 18 -35 -31 -51 -6 -32 51 l8 23 -39 -17 c-211 -92 -240 -98 -230
-46 12 57 12 67 1 65 -7 -1 -41 -5 -78 -9 -61 -6 -66 -5 -74 15 -7 20 -12 16
-54 -42 -87 -118 -126 -142 -115 -70 8 47 50 153 61 153 4 0 5 -8 1 -17 -4
-10 -16 -42 -26 -72 -38 -109 -23 -107 64 9 65 88 87 102 87 58 0 -20 3 -20
77 -14 42 4 85 12 95 17 17 9 17 8 -1 -28 -25 -49 -31 -89 -12 -85 34 7 233
96 256 114 30 23 30 22 5 -33 -11 -24 -20 -50 -20 -57 0 -23 38 6 77 58 41 55
60 66 37 23 -8 -17 -14 -57 -14 -97 0 -65 1 -68 19 -55 74 54 191 144 219 169
39 36 65 38 80 6z"/>
<path d="M8239 7153 c5 -10 30 -38 56 -63 76 -73 128 -146 208 -295 101 -187
133 -304 153 -562 12 -156 25 -129 21 42 -5 145 -8 172 -41 287 -85 306 -169
447 -332 564 -67 48 -80 53 -65 27z"/>
<path d="M8350 6989 c0 -3 16 -40 35 -82 43 -94 78 -240 99 -416 15 -126 20
-143 78 -275 33 -78 63 -143 65 -146 19 -19 -44 432 -71 513 -40 118 -204 443
-206 406z"/>
<path d="M8050 6500 c0 -7 35 -81 79 -164 96 -185 115 -236 131 -351 16 -115
61 -257 115 -365 46 -91 194 -322 195 -304 0 6 -18 46 -39 90 -70 143 -112
265 -190 549 -52 193 -77 252 -149 355 -25 36 -67 96 -94 134 -26 38 -48 64
-48 56z"/>
<path d="M8056 6370 c4 -30 7 -131 6 -225 -1 -191 11 -276 59 -391 61 -148
196 -316 344 -429 77 -60 101 -67 65 -22 -58 74 -158 234 -200 322 -62 129
-85 207 -105 351 -9 65 -25 138 -35 163 -20 51 -128 272 -137 281 -3 3 -2 -20
3 -50z"/>
<path d="M9088 5863 c-175 -364 -223 -536 -221 -783 1 -148 45 -568 56 -540 9
23 72 354 106 555 43 256 133 884 129 896 -2 6 -33 -51 -70 -128z"/>
<path d="M9181 5889 c-6 -61 -29 -217 -51 -347 -21 -131 -46 -289 -54 -352
-74 -563 -123 -768 -247 -1029 -33 -68 -58 -126 -56 -127 9 -10 114 75 176
143 162 175 283 400 322 598 22 109 17 404 -9 615 -12 96 -26 222 -32 280 -16
180 -32 325 -34 328 -2 1 -8 -48 -15 -109z"/>
<path d="M7881 5255 c-1 -5 -15 -93 -31 -195 -23 -138 -33 -246 -40 -423 -12
-265 -8 -309 38 -409 33 -71 62 -109 165 -218 40 -41 85 -91 100 -110 l28 -35
-6 50 c-8 65 -67 360 -100 500 -83 353 -113 513 -144 775 -4 41 -9 71 -10 65z"/>
<path d="M7924 5178 c3 -13 8 -54 11 -93 4 -38 18 -128 31 -200 28 -146 153
-656 164 -668 13 -15 20 136 9 213 -5 41 -13 136 -18 210 -14 206 -39 295
-129 457 -56 100 -77 126 -68 81z"/>
<path d="M9468 3914 c-161 -135 -277 -267 -407 -466 -55 -84 -118 -178 -140
-208 -56 -78 -268 -319 -435 -495 -78 -82 -178 -188 -221 -235 -211 -227 -325
-319 -499 -401 -95 -45 -94 -45 125 -29 171 13 250 30 362 79 27 12 54 18 59
14 7 -3 8 -1 4 5 -4 7 -2 12 4 12 20 0 354 341 411 420 82 113 113 160 142
215 41 79 144 298 204 435 104 240 229 439 408 648 20 23 34 42 32 42 -3 0
-25 -16 -49 -36z"/>
<path d="M9340 3873 c-238 -141 -471 -377 -788 -800 -116 -154 -239 -339 -282
-423 -18 -36 -51 -93 -73 -128 -22 -34 -38 -65 -35 -67 3 -3 40 34 84 82 43
48 113 124 155 168 83 87 89 93 225 241 172 186 263 297 336 411 143 224 239
345 379 476 56 53 100 97 98 97 -2 0 -47 -25 -99 -57z"/>
<path d="M2695 4479 c-211 -120 -335 -214 -335 -255 0 -21 3 -24 28 -18 50 12
178 80 239 127 77 59 163 153 163 178 0 10 -1 19 -2 19 -2 0 -43 -23 -93 -51z"/>
<path d="M6034 5409 c-60 -45 -201 -199 -266 -290 -64 -89 -239 -375 -310
-505 -18 -33 -39 -70 -46 -82 -11 -20 -11 -22 9 -22 30 0 133 54 194 101 117
89 295 292 389 443 51 82 129 251 139 304 4 19 2 42 -3 53 -14 26 -69 25 -106
-2z"/>
<path d="M6639 4416 c-75 -76 -119 -144 -119 -183 0 -31 26 -53 65 -53 57 0
113 85 129 200 3 19 8 52 11 73 3 21 2 37 -4 37 -5 0 -42 -33 -82 -74z"/>
</g>
</svg>
